<svg width="30" height="30" viewBox="0 0 30 30" fill="none" xmlns="http://www.w3.org/2000/svg">
<path d="M26.6667 1.66667V3.33333H23.3333V0H6.66667V3.33333H3.33333V0H0V30H3.33333V26.6667H6.66667V30H23.3333V26.6667H26.6667V30H30V0H26.6667V1.66667ZM3.33333 6.66667H6.66667V10H3.33333V6.66667ZM3.33333 13.3333H6.66667V16.6667H3.33333V13.3333ZM3.33333 23.3333V20H6.66667V23.3333H3.33333ZM23.3333 23.3333V20H26.6667V23.3333H23.3333ZM26.6667 16.6667H23.3333V13.3333H26.6667V16.6667ZM23.3333 10V6.66667H26.6667V10H23.3333Z" fill="#888888"/>
</svg>
