<svg width="34" height="30" viewBox="0 0 34 30" fill="none" xmlns="http://www.w3.org/2000/svg">
<path d="M28.6666 8.33333H5.33325C2.56659 8.33333 0.333252 10.5667 0.333252 13.3333V20C0.333252 21.8333 1.83325 23.3333 3.66659 23.3333H6.99992V26.6667C6.99992 28.5 8.49992 30 10.3333 30H23.6666C25.4999 30 26.9999 28.5 26.9999 26.6667V23.3333H30.3333C32.1666 23.3333 33.6666 21.8333 33.6666 20V13.3333C33.6666 10.5667 31.4333 8.33333 28.6666 8.33333ZM21.9999 26.6667H11.9999C11.0833 26.6667 10.3333 25.9167 10.3333 25V18.3333H23.6666V25C23.6666 25.9167 22.9166 26.6667 21.9999 26.6667ZM28.6666 15C27.7499 15 26.9999 14.25 26.9999 13.3333C26.9999 12.4167 27.7499 11.6667 28.6666 11.6667C29.5833 11.6667 30.3333 12.4167 30.3333 13.3333C30.3333 14.25 29.5833 15 28.6666 15ZM25.3333 0H8.66659C7.74992 0 6.99992 0.75 6.99992 1.66667V5C6.99992 5.91667 7.74992 6.66667 8.66659 6.66667H25.3333C26.2499 6.66667 26.9999 5.91667 26.9999 5V1.66667C26.9999 0.75 26.2499 0 25.3333 0Z" fill="#888888"/>
</svg>
